<svg xmlns="http://www.w3.org/2000/svg" width="164" height="40" viewBox="0 0 164 40" fill="none"><g clip-path="url(#clip0_227_6150)"><path d="M47.7571 28.0911H59.4944V24.5789H51.9288V11.3496H47.7571V28.0911Z" fill="white"></path><path d="M66.4484 25.7498C64.775 25.7498 63.903 24.2981 63.903 22.1206C63.903 19.943 64.775 18.4679 66.4484 18.4679C68.1218 18.4679 69.0174 19.943 69.0174 22.1206C69.0174 24.2981 68.1218 25.7498 66.4484 25.7498ZM66.472 28.4659C70.3608 28.4659 72.9063 25.7264 72.9063 22.1206C72.9063 18.5147 70.3608 15.7752 66.472 15.7752C62.6067 15.7752 60.0141 18.5147 60.0141 22.1206C60.0141 25.7264 62.6067 28.4659 66.472 28.4659Z" fill="white"></path><path d="M79.6375 32.2357C81.4287 32.2357 83.0078 31.8377 84.0684 30.9011C85.0348 30.0348 85.6711 28.7235 85.6711 26.9206V16.1031H81.9944V17.3909H81.9472C81.2402 16.384 80.156 15.7518 78.5533 15.7518C75.5601 15.7518 73.486 18.2338 73.486 21.746C73.486 25.4221 76.0079 27.4357 78.7183 27.4357C80.1796 27.4357 81.0988 26.8504 81.8058 26.0543H81.9001V27.2484C81.9001 28.7001 81.2166 29.5431 79.5904 29.5431C78.3176 29.5431 77.6813 29.0045 77.4692 28.3723H73.7453C74.1224 30.8777 76.3143 32.2357 79.6375 32.2357ZM79.6139 24.6026C78.1762 24.6026 77.2335 23.4318 77.2335 21.6289C77.2335 19.8026 78.1762 18.6318 79.6139 18.6318C81.2166 18.6318 82.0651 19.9899 82.0651 21.6055C82.0651 23.2913 81.2873 24.6026 79.6139 24.6026Z" fill="white"></path><path d="M93.2312 25.7498C91.5578 25.7498 90.6858 24.2981 90.6858 22.1206C90.6858 19.943 91.5578 18.4679 93.2312 18.4679C94.9046 18.4679 95.8002 19.943 95.8002 22.1206C95.8002 24.2981 94.9046 25.7498 93.2312 25.7498ZM93.2548 28.4659C97.1437 28.4659 99.6894 25.7264 99.6894 22.1206C99.6894 18.5147 97.1437 15.7752 93.2548 15.7752C89.3895 15.7752 86.7969 18.5147 86.7969 22.1206C86.7969 25.7264 89.3895 28.4659 93.2548 28.4659Z" fill="white"></path><path d="M100.811 28.0911H104.653V16.1028H100.811V28.0911ZM100.811 14.4403H104.653V11.3496H100.811V14.4403Z" fill="white"></path><path d="M106.319 32.0484H110.161V26.8504H110.208C110.962 27.8572 112.07 28.466 113.626 28.466C116.784 28.466 118.881 25.984 118.881 22.0972C118.881 18.4913 116.925 15.7518 113.72 15.7518C112.07 15.7518 110.892 16.4777 110.067 17.5548H109.996V16.1031H106.319V32.0484ZM112.636 25.5157C110.986 25.5157 110.043 24.1811 110.043 22.2377C110.043 20.2943 110.892 18.8191 112.565 18.8191C114.215 18.8191 114.992 20.1772 114.992 22.2377C114.992 24.2748 114.097 25.5157 112.636 25.5157Z" fill="white"></path><path d="M125.137 28.466C128.295 28.466 130.628 27.1079 130.628 24.4855C130.628 21.4182 128.13 20.8796 126.009 20.5284C124.477 20.2474 123.11 20.1304 123.11 19.2874C123.11 18.5382 123.841 18.187 124.783 18.187C125.844 18.187 126.575 18.5148 126.716 19.5918H130.251C130.063 17.227 128.224 15.7518 124.807 15.7518C121.955 15.7518 119.598 17.0631 119.598 19.5918C119.598 22.4016 121.837 22.9635 123.935 23.3148C125.538 23.5957 126.999 23.7128 126.999 24.7899C126.999 25.5626 126.268 25.984 125.113 25.984C123.841 25.984 123.039 25.3987 122.898 24.2045H119.268C119.386 26.8504 121.602 28.466 125.137 28.466Z" fill="white"></path><path d="M135.846 28.4425C137.519 28.4425 138.58 27.7869 139.452 26.6162H139.523V28.0913H143.2V16.103H139.358V22.7996C139.358 24.2279 138.556 25.2113 137.237 25.2113C136.011 25.2113 135.422 24.4855 135.422 23.1742V16.103H131.604V23.9703C131.604 26.6396 133.065 28.4425 135.846 28.4425Z" fill="white"></path><path d="M144.871 28.0913H148.713V21.3713C148.713 19.9431 149.42 18.9362 150.622 18.9362C151.777 18.9362 152.319 19.6855 152.319 20.9733V28.0913H156.16V21.3713C156.16 19.9431 156.844 18.9362 158.069 18.9362C159.224 18.9362 159.766 19.6855 159.766 20.9733V28.0913H163.608V20.2943C163.608 17.6016 162.241 15.7518 159.507 15.7518C157.952 15.7518 156.655 16.4074 155.713 17.8591H155.665C155.053 16.5713 153.851 15.7518 152.272 15.7518C150.527 15.7518 149.373 16.5713 148.618 17.8123H148.548V16.1031H144.871V28.0913Z" fill="white"></path><path fill-rule="evenodd" clip-rule="evenodd" d="M8.4987 3.79655C7.09374 4.77251 5.82328 5.92641 4.7204 7.22536C9.22726 6.80968 14.9531 7.48843 21.6007 10.7905C28.6994 14.3166 34.4156 14.4358 38.3939 13.6734C38.0329 12.5877 37.5784 11.5442 37.0401 10.5522C32.4861 11.0293 26.6479 10.3977 19.844 7.01812C15.5234 4.87197 11.7149 3.98791 8.4987 3.79655ZM34.3799 6.79048C30.7836 2.79863 25.5573 0.286438 19.7403 0.286438C18.032 0.286438 16.3746 0.503128 14.7945 0.910321C16.9345 1.49042 19.2079 2.33911 21.6007 3.52767C26.5821 6.00207 30.8829 6.79878 34.3799 6.79048ZM39.2444 17.4846C34.4383 18.4274 27.8016 18.2337 19.844 14.281C12.4045 10.5855 6.48327 10.6321 2.48979 11.5137C2.28366 11.5592 2.08238 11.607 1.88596 11.6568C1.36312 12.7864 0.945765 13.9743 0.646311 15.2079C0.966144 15.123 1.29664 15.0423 1.63763 14.967C6.48242 13.8974 13.3277 13.9439 21.6007 18.0533C29.0403 21.7488 34.9614 21.7022 38.955 20.8206C39.0918 20.7904 39.2266 20.7592 39.3592 20.727C39.3737 20.4194 39.381 20.1098 39.381 19.7986C39.381 19.0157 39.3347 18.2435 39.2444 17.4846ZM38.7179 24.8448C33.9585 25.6714 27.5151 25.3541 19.844 21.5438C12.4045 17.8484 6.48327 17.8949 2.48979 18.7766C1.60335 18.9722 0.805928 19.2105 0.102487 19.4621C0.100569 19.574 0.0996094 19.6862 0.0996094 19.7986C0.0996094 30.5749 8.89304 39.3108 19.7403 39.3108C28.8311 39.3108 36.4794 33.1751 38.7179 24.8448Z" fill="#FFB967"></path></g><defs><clipPath id="clip0_227_6150"><rect width="164" height="40" fill="white"></rect></clipPath></defs></svg>