<svg xmlns="http://www.w3.org/2000/svg" width="164" height="40" viewBox="0 0 164 40" fill="none"><g clip-path="url(#clip0_227_6134)"><path d="M48.1042 28.2462H59.7717V24.734H52.2511V11.5048H48.1042V28.2462Z" fill="white"></path><path d="M66.6843 25.9048C65.0208 25.9048 64.154 24.4531 64.154 22.2755C64.154 20.098 65.0208 18.6229 66.6843 18.6229C68.3477 18.6229 69.238 20.098 69.238 22.2755C69.238 24.4531 68.3477 25.9048 66.6843 25.9048ZM66.7077 28.6209C70.5734 28.6209 73.1037 25.8814 73.1037 22.2755C73.1037 18.6697 70.5734 15.9302 66.7077 15.9302C62.8654 15.9302 60.2883 18.6697 60.2883 22.2755C60.2883 25.8814 62.8654 28.6209 66.7077 28.6209Z" fill="white"></path><path d="M79.7948 32.3906C81.5754 32.3906 83.1451 31.9926 84.1994 31.056C85.16 30.1897 85.7926 28.8784 85.7926 27.0755V16.258H82.1377V17.5458H82.0909C81.388 16.5389 80.3103 15.9067 78.7171 15.9067C75.7417 15.9067 73.68 18.3887 73.68 21.9009C73.68 25.577 76.1869 27.5906 78.8811 27.5906C80.3337 27.5906 81.2474 27.0053 81.9503 26.2092H82.044V27.4033C82.044 28.855 81.3646 29.698 79.748 29.698C78.4829 29.698 77.8503 29.1594 77.6394 28.5272H73.9377C74.3126 31.0326 76.4914 32.3906 79.7948 32.3906ZM79.7714 24.7575C78.3423 24.7575 77.4051 23.5867 77.4051 21.7838C77.4051 19.9575 78.3423 18.7867 79.7714 18.7867C81.3646 18.7867 82.208 20.1448 82.208 21.7604C82.208 23.4463 81.4349 24.7575 79.7714 24.7575Z" fill="white"></path><path d="M93.3077 25.9048C91.6443 25.9048 90.7774 24.4531 90.7774 22.2755C90.7774 20.098 91.6443 18.6229 93.3077 18.6229C94.9711 18.6229 95.8614 20.098 95.8614 22.2755C95.8614 24.4531 94.9711 25.9048 93.3077 25.9048ZM93.3311 28.6209C97.1968 28.6209 99.7266 25.8814 99.7266 22.2755C99.7266 18.6697 97.1968 15.9302 93.3311 15.9302C89.4888 15.9302 86.9117 18.6697 86.9117 22.2755C86.9117 25.8814 89.4888 28.6209 93.3311 28.6209Z" fill="white"></path><path d="M100.842 28.2462H104.661V16.2579H100.842V28.2462ZM100.842 14.5955H104.661V11.5048H100.842V14.5955Z" fill="white"></path><path d="M106.318 32.2033H110.137V27.0053H110.184C110.933 28.0121 112.034 28.6209 113.581 28.6209C116.72 28.6209 118.805 26.1389 118.805 22.2521C118.805 18.6463 116.861 15.9067 113.674 15.9067C112.034 15.9067 110.863 16.6326 110.043 17.7097H109.973V16.258H106.318V32.2033ZM112.597 25.6706C110.957 25.6706 110.02 24.336 110.02 22.3926C110.02 20.4492 110.863 18.9741 112.526 18.9741C114.166 18.9741 114.94 20.3321 114.94 22.3926C114.94 24.4297 114.049 25.6706 112.597 25.6706Z" fill="white"></path><path d="M125.023 28.6209C128.162 28.6209 130.482 27.2628 130.482 24.6404C130.482 21.5731 127.998 21.0345 125.89 20.6833C124.367 20.4023 123.008 20.2853 123.008 19.4423C123.008 18.6931 123.734 18.3419 124.671 18.3419C125.726 18.3419 126.452 18.6697 126.592 19.7467H130.107C129.919 17.3819 128.092 15.9067 124.695 15.9067C121.86 15.9067 119.517 17.218 119.517 19.7467C119.517 22.5565 121.743 23.1184 123.828 23.4697C125.421 23.7506 126.874 23.8677 126.874 24.9448C126.874 25.7175 126.147 26.1389 124.999 26.1389C123.734 26.1389 122.938 25.5536 122.797 24.3594H119.189C119.306 27.0053 121.508 28.6209 125.023 28.6209Z" fill="white"></path><path d="M135.669 28.5974C137.332 28.5974 138.387 27.9418 139.254 26.7711H139.324V28.2462H142.979V16.2579H139.16V22.9545C139.16 24.3828 138.363 25.3662 137.051 25.3662C135.833 25.3662 135.247 24.6404 135.247 23.3292V16.2579H131.452V24.1253C131.452 26.7945 132.904 28.5974 135.669 28.5974Z" fill="white"></path><path d="M144.64 28.2463H148.459V21.5263C148.459 20.098 149.162 19.0911 150.357 19.0911C151.505 19.0911 152.044 19.8404 152.044 21.1282V28.2463H155.862V21.5263C155.862 20.098 156.542 19.0911 157.76 19.0911C158.908 19.0911 159.447 19.8404 159.447 21.1282V28.2463H163.266V20.4492C163.266 17.7565 161.907 15.9067 159.189 15.9067C157.643 15.9067 156.354 16.5623 155.417 18.0141H155.37C154.761 16.7263 153.566 15.9067 151.997 15.9067C150.263 15.9067 149.115 16.7263 148.365 17.9672H148.295V16.258H144.64V28.2463Z" fill="white"></path><path d="M24.8049 1.92867L20.9655 0.900513L17.73 12.9684L14.809 2.07343L10.9695 3.10158L14.1256 14.8728L6.26465 7.01659L3.45401 9.82556L12.0764 18.4429L1.33858 15.5674L0.309814 19.4045L12.0423 22.5463C11.908 21.9673 11.8369 21.364 11.8369 20.7441C11.8369 16.3562 15.3961 12.7991 19.7866 12.7991C24.1771 12.7991 27.7363 16.3562 27.7363 20.7441C27.7363 21.36 27.6661 21.9596 27.5334 22.5352L38.1961 25.3905L39.2248 21.5535L27.4457 18.3991L38.1843 15.5234L37.1555 11.6863L25.3768 14.8405L33.2377 6.98434L30.4271 4.17537L21.9242 12.6732L24.8049 1.92867Z" fill="#FFB967"></path><path d="M27.523 22.5799C27.1938 23.9707 26.4989 25.2202 25.5453 26.2213L33.2699 33.9414L36.0806 31.1324L27.523 22.5799Z" fill="#FFB967"></path><path d="M25.4672 26.3021C24.5022 27.2871 23.2826 28.0223 21.915 28.4011L24.7258 38.885L28.5652 37.8568L25.4672 26.3021Z" fill="#FFB967"></path><path d="M21.7716 28.4394C21.1371 28.6024 20.472 28.6891 19.7866 28.6891C19.0523 28.6891 18.3413 28.5896 17.6662 28.4033L14.8528 38.8968L18.6922 39.9249L21.7716 28.4394Z" fill="#FFB967"></path><path d="M17.5305 28.3646C16.1838 27.9669 14.9859 27.2225 14.0405 26.2346L6.29694 33.9736L9.10757 36.7826L17.5305 28.3646Z" fill="#FFB967"></path><path d="M13.9759 26.1661C13.0468 25.172 12.37 23.9392 12.0478 22.5698L1.3504 25.4345L2.37916 29.2716L13.9759 26.1661Z" fill="#FFB967"></path></g><defs><clipPath id="clip0_227_6134"><rect width="164" height="40" fill="white"></rect></clipPath></defs></svg>