<svg xmlns="http://www.w3.org/2000/svg" width="164" height="40" viewBox="0 0 164 40" fill="none"><g clip-path="url(#clip0_499_172)"><path d="M48.1042 28.2462H59.7717V24.734H52.2511V11.5048H48.1042V28.2462Z" fill="white"></path><path d="M66.6842 25.9048C65.0208 25.9048 64.1539 24.4531 64.1539 22.2755C64.1539 20.0979 65.0208 18.6228 66.6842 18.6228C68.3476 18.6228 69.2379 20.0979 69.2379 22.2755C69.2379 24.4531 68.3476 25.9048 66.6842 25.9048ZM66.7076 28.6209C70.5734 28.6209 73.1036 25.8814 73.1036 22.2755C73.1036 18.6697 70.5734 15.9301 66.7076 15.9301C62.8654 15.9301 60.2882 18.6697 60.2882 22.2755C60.2882 25.8814 62.8654 28.6209 66.7076 28.6209Z" fill="white"></path><path d="M79.7949 32.3906C81.5755 32.3906 83.1452 31.9926 84.1995 31.056C85.1601 30.1897 85.7926 28.8784 85.7926 27.0755V16.258H82.1378V17.5458H82.0909C81.3881 16.5389 80.3103 15.9067 78.7172 15.9067C75.7418 15.9067 73.6801 18.3887 73.6801 21.9009C73.6801 25.577 76.1869 27.5906 78.8812 27.5906C80.3338 27.5906 81.2475 27.0053 81.9503 26.2092H82.0441V27.4033C82.0441 28.855 81.3646 29.698 79.7481 29.698C78.4829 29.698 77.8503 29.1594 77.6395 28.5272H73.9378C74.3126 31.0326 76.4915 32.3906 79.7949 32.3906ZM79.7715 24.7575C78.3423 24.7575 77.4052 23.5867 77.4052 21.7838C77.4052 19.9575 78.3423 18.7867 79.7715 18.7867C81.3646 18.7867 82.2081 20.1448 82.2081 21.7604C82.2081 23.4463 81.4349 24.7575 79.7715 24.7575Z" fill="white"></path><path d="M93.3077 25.9048C91.6443 25.9048 90.7775 24.4531 90.7775 22.2755C90.7775 20.0979 91.6443 18.6228 93.3077 18.6228C94.9712 18.6228 95.8615 20.0979 95.8615 22.2755C95.8615 24.4531 94.9712 25.9048 93.3077 25.9048ZM93.3312 28.6209C97.1969 28.6209 99.7267 25.8814 99.7267 22.2755C99.7267 18.6697 97.1969 15.9301 93.3312 15.9301C89.4889 15.9301 86.9117 18.6697 86.9117 22.2755C86.9117 25.8814 89.4889 28.6209 93.3312 28.6209Z" fill="white"></path><path d="M100.842 28.2462H104.661V16.2579H100.842V28.2462ZM100.842 14.5955H104.661V11.5048H100.842V14.5955Z" fill="white"></path><path d="M106.318 32.2033H110.137V27.0053H110.184C110.933 28.0121 112.034 28.6209 113.581 28.6209C116.72 28.6209 118.805 26.1389 118.805 22.2521C118.805 18.6462 116.861 15.9067 113.674 15.9067C112.034 15.9067 110.863 16.6326 110.043 17.7097H109.973V16.258H106.318V32.2033ZM112.597 25.6706C110.957 25.6706 110.02 24.336 110.02 22.3926C110.02 20.4492 110.863 18.9741 112.526 18.9741C114.166 18.9741 114.94 20.3321 114.94 22.3926C114.94 24.4297 114.049 25.6706 112.597 25.6706Z" fill="white"></path><path d="M125.023 28.6209C128.162 28.6209 130.482 27.2628 130.482 24.6404C130.482 21.5731 127.998 21.0345 125.89 20.6833C124.367 20.4023 123.008 20.2853 123.008 19.4423C123.008 18.6931 123.734 18.3419 124.671 18.3419C125.726 18.3419 126.452 18.6697 126.592 19.7467H130.107C129.919 17.3819 128.092 15.9067 124.695 15.9067C121.86 15.9067 119.517 17.218 119.517 19.7467C119.517 22.5565 121.743 23.1184 123.828 23.4697C125.421 23.7506 126.874 23.8677 126.874 24.9448C126.874 25.7175 126.147 26.1389 124.999 26.1389C123.734 26.1389 122.938 25.5536 122.797 24.3594H119.189C119.306 27.0053 121.508 28.6209 125.023 28.6209Z" fill="white"></path><path d="M135.669 28.5975C137.332 28.5975 138.387 27.9419 139.254 26.7711H139.324V28.2462H142.979V16.2579H139.16V22.9545C139.16 24.3828 138.363 25.3662 137.051 25.3662C135.833 25.3662 135.247 24.6404 135.247 23.3292V16.2579H131.452V24.1253C131.452 26.7945 132.904 28.5975 135.669 28.5975Z" fill="white"></path><path d="M144.64 28.2463H148.459V21.5263C148.459 20.098 149.162 19.0911 150.357 19.0911C151.505 19.0911 152.044 19.8404 152.044 21.1282V28.2463H155.862V21.5263C155.862 20.098 156.542 19.0911 157.76 19.0911C158.908 19.0911 159.447 19.8404 159.447 21.1282V28.2463H163.266V20.4492C163.266 17.7565 161.907 15.9067 159.189 15.9067C157.643 15.9067 156.354 16.5623 155.417 18.0141H155.37C154.761 16.7263 153.566 15.9067 151.997 15.9067C150.263 15.9067 149.115 16.7263 148.365 17.9672H148.295V16.258H144.64V28.2463Z" fill="white"></path><path fill-rule="evenodd" clip-rule="evenodd" d="M19.9999 40C31.0457 40 39.9999 31.0457 39.9999 20C39.9999 8.9543 31.0457 0 19.9999 0C8.95429 0 0 8.9543 0 20C0 31.0457 8.95429 40 19.9999 40ZM23.0869 15.4526C24.7917 13.7477 24.7917 10.9836 23.0869 9.27866C21.382 7.57378 18.6179 7.57378 16.913 9.27866C15.2082 10.9836 15.2082 13.7477 16.913 15.4526L19.9999 18.5395L23.0869 15.4526ZM24.5474 23.087C26.2523 24.7919 29.0164 24.7919 30.7213 23.087C32.4261 21.3821 32.4261 18.618 30.7213 16.9131C29.0164 15.2083 26.2523 15.2083 24.5474 16.9131L21.4605 20.0001L24.5474 23.087ZM23.0869 30.7214C24.7917 29.0165 24.7917 26.2524 23.0869 24.5475L19.9999 21.4606L16.913 24.5475C15.2082 26.2524 15.2082 29.0165 16.913 30.7214C18.6179 32.4263 21.382 32.4263 23.0869 30.7214ZM9.27863 23.087C7.57379 21.3821 7.57379 18.618 9.27863 16.9131C10.9835 15.2083 13.7476 15.2083 15.4525 16.9131L18.5394 20.0001L15.4525 23.087C13.7476 24.7919 10.9835 24.7919 9.27863 23.087Z" fill="#FFB967"></path></g><defs><clipPath id="clip0_499_172"><rect width="164" height="40" fill="white"></rect></clipPath></defs></svg>